<?xml version="1.0" encoding="utf-8"?>
<!-- Generator: Adobe Illustrator 23.1.0, SVG Export Plug-In . SVG Version: 6.00 Build 0)  -->
<svg version="1.1" id="Layer_1" xmlns="http://www.w3.org/2000/svg" xmlns:xlink="http://www.w3.org/1999/xlink" x="0px" y="0px"
	 viewBox="0 0 283.5 396.9" style="enable-background:new 0 0 283.5 396.9;" xml:space="preserve">
<style type="text/css">
	.st0{fill:#97B14F;}
	.st1{fill:#DCDFE4;}
	.st2{fill:#A0A3A8;}
	.st3{fill:#4B6E9D;}
	.st4{fill:#EC6737;}
	.st5{fill:#00FF00;}
</style>
<path d="M279.5,4v388.9H4V4H279.5 M283.5,0H0v396.9h283.5V0L283.5,0z"/>
<g>
	<path d="M65,279.2h0.7l6.8,8.5v-8.5h0.7v9.8h-0.5l-6.9-8.7v8.7H65V279.2z"/>
	<path d="M74.9,286.9L74.9,286.9c0-1.5,1.3-2.4,3.1-2.4c1,0,1.7,0.1,2.4,0.3v-0.3c0-1.4-0.9-2.2-2.4-2.2c-0.9,0-1.6,0.2-2.2,0.6
		l-0.3-0.6c0.8-0.4,1.6-0.6,2.5-0.6c1,0,1.7,0.3,2.3,0.8c0.5,0.5,0.7,1.1,0.7,2v4.5h-0.7v-1.2c-0.5,0.7-1.4,1.4-2.7,1.4
		C76.3,289.2,74.9,288.4,74.9,286.9z M80.4,286.3v-0.8c-0.6-0.2-1.4-0.3-2.4-0.3c-1.5,0-2.4,0.7-2.4,1.7v0c0,1,1,1.6,2.1,1.6
		C79.2,288.5,80.4,287.6,80.4,286.3z"/>
	<path d="M82.5,288.1l0.4-0.5c0.8,0.6,1.7,0.9,2.6,0.9c1,0,1.7-0.5,1.7-1.4v0c0-0.8-0.9-1.1-1.9-1.4c-1.2-0.3-2.5-0.7-2.5-2v0
		c0-1.1,1-2,2.4-2c0.9,0,1.8,0.3,2.5,0.8l-0.4,0.6c-0.7-0.4-1.4-0.7-2.2-0.7c-1,0-1.6,0.5-1.6,1.2v0c0,0.8,1,1.1,2,1.4
		c1.1,0.3,2.4,0.7,2.4,2v0c0,1.3-1.1,2.1-2.5,2.1C84.4,289.1,83.3,288.7,82.5,288.1z"/>
	<path d="M89.7,278.8h0.7v7.7l4.4-4.6h0.9l-3.1,3.2l3.2,4h-0.9l-2.8-3.5l-1.7,1.8v1.7h-0.7V278.8z"/>
	<path d="M96.2,285.4L96.2,285.4c0-2.1,1.5-3.8,3.4-3.8c2,0,3.3,1.6,3.3,3.7c0,0.1,0,0.2,0,0.3H97c0.1,1.8,1.4,2.8,2.8,2.8
		c1.1,0,1.9-0.5,2.5-1.1l0.5,0.4c-0.7,0.8-1.6,1.3-3,1.3C97.9,289.2,96.2,287.7,96.2,285.4z M102.2,285.1c-0.1-1.4-0.9-2.8-2.6-2.8
		c-1.4,0-2.5,1.2-2.6,2.8H102.2z"/>
	<path d="M104.5,281.9h0.7v1.3c0.5-0.8,1.3-1.5,2.6-1.5c1.8,0,2.9,1.2,2.9,2.9v4.4h-0.7v-4.2c0-1.5-0.8-2.4-2.3-2.4
		c-1.4,0-2.5,1.1-2.5,2.5v4.1h-0.7V281.9z"/>
	<path d="M112.2,285.5L112.2,285.5c0-2,1.6-3.8,3.7-3.8c2.1,0,3.7,1.7,3.7,3.7v0c0,2-1.6,3.7-3.7,3.7
		C113.7,289.2,112.2,287.5,112.2,285.5z M118.7,285.5L118.7,285.5c0-1.8-1.3-3.1-2.9-3.1c-1.7,0-2.9,1.4-2.9,3.1v0
		c0,1.7,1.3,3.1,2.9,3.1C117.5,288.5,118.7,287.1,118.7,285.5z"/>
	<path d="M120,281.9h0.8l2.7,6.4l2.7-6.4h0.8l-3.2,7.2h-0.6L120,281.9z"/>
	<path d="M127.6,286.9L127.6,286.9c0-1.5,1.3-2.4,3.1-2.4c1,0,1.7,0.1,2.4,0.3v-0.3c0-1.4-0.9-2.2-2.4-2.2c-0.9,0-1.6,0.2-2.2,0.6
		l-0.3-0.6c0.8-0.4,1.6-0.6,2.5-0.6c1,0,1.7,0.3,2.3,0.8c0.5,0.5,0.7,1.1,0.7,2v4.5H133v-1.2c-0.5,0.7-1.4,1.4-2.7,1.4
		C129,289.2,127.6,288.4,127.6,286.9z M133.1,286.3v-0.8c-0.6-0.2-1.4-0.3-2.4-0.3c-1.5,0-2.4,0.7-2.4,1.7v0c0,1,1,1.6,2.1,1.6
		C131.8,288.5,133.1,287.6,133.1,286.3z M131.8,278.8l0.9,0.4l-1.5,1.4h-0.6L131.8,278.8z"/>
	<path d="M135.8,281.9h0.7v1.3c0.5-0.8,1.3-1.5,2.6-1.5c1.8,0,2.9,1.2,2.9,2.9v4.4h-0.7v-4.2c0-1.5-0.8-2.4-2.3-2.4
		c-1.4,0-2.5,1.1-2.5,2.5v4.1h-0.7V281.9z"/>
	<path d="M144,281.9h0.7v7.1H144V281.9z M145.3,278.8l0.9,0.4l-1.5,1.4h-0.6L145.3,278.8z"/>
	<path d="M147,281.9h0.7v1.3c0.5-0.7,1.1-1.4,2.4-1.4c1.2,0,2,0.7,2.4,1.5c0.5-0.8,1.2-1.5,2.6-1.5c1.7,0,2.7,1.2,2.7,3v4.3h-0.7
		v-4.2c0-1.5-0.8-2.4-2.1-2.4c-1.2,0-2.3,0.9-2.3,2.5v4.2H152v-4.3c0-1.5-0.8-2.4-2.1-2.4s-2.3,1.1-2.3,2.6v4.1H147V281.9z"/>
	<path d="M172.8,289.3l-1.4-1.2c-0.8,0.7-1.9,1.1-3.2,1.1c-3,0-4.9-2.4-4.9-5v0c0-2.7,2-5.1,4.9-5.1s4.9,2.4,4.9,5v0
		c0,1.3-0.5,2.5-1.3,3.5l1.4,1.2L172.8,289.3z M170.9,287.6L169,286l0.5-0.6l1.9,1.7c0.7-0.8,1.1-1.8,1.1-3v0c0-2.4-1.8-4.4-4.2-4.4
		s-4.2,2-4.2,4.4v0c0,2.4,1.8,4.4,4.2,4.4C169.3,288.5,170.2,288.2,170.9,287.6z"/>
	<path d="M175.3,279.2h4.1c1.2,0,2.2,0.4,2.8,1c0.5,0.5,0.7,1.1,0.7,1.8v0c0,1.6-1.2,2.6-2.9,2.8l3.2,4.2h-0.9l-3.1-4.1H176v4.1
		h-0.7V279.2z M179.3,284.3c1.6,0,2.9-0.8,2.9-2.2v0c0-1.3-1-2.1-2.8-2.1H176v4.4H179.3z"/>
	<path d="M188.6,278.8h0.7v7.7l4.4-4.6h0.9l-3.1,3.2l3.2,4h-0.9l-2.8-3.5l-1.7,1.8v1.7h-0.7V278.8z"/>
	<path d="M195.2,285.5L195.2,285.5c0-2,1.6-3.8,3.7-3.8c2.1,0,3.7,1.7,3.7,3.7v0c0,2-1.6,3.7-3.7,3.7
		C196.7,289.2,195.2,287.5,195.2,285.5z M201.8,285.5L201.8,285.5c0-1.8-1.3-3.1-2.9-3.1c-1.7,0-2.9,1.4-2.9,3.1v0
		c0,1.7,1.3,3.1,2.9,3.1C200.6,288.5,201.8,287.1,201.8,285.5z M199.8,278.8l0.9,0.4l-1.5,1.4h-0.6L199.8,278.8z"/>
	<path d="M203.8,285.5L203.8,285.5c0-2.4,1.8-3.8,3.5-3.8c1.4,0,2.4,0.8,2.9,1.7v-4.6h0.7V289h-0.7v-1.6c-0.6,0.9-1.5,1.8-2.9,1.8
		C205.5,289.2,203.8,287.8,203.8,285.5z M210.2,285.4L210.2,285.4c0-1.9-1.4-3.1-2.9-3.1c-1.6,0-2.8,1.1-2.8,3.1v0
		c0,1.9,1.3,3.1,2.8,3.1C208.8,288.5,210.2,287.3,210.2,285.4z"/>
	<path d="M212.9,286.2v-4.4h0.7v4.2c0,1.5,0.8,2.4,2.3,2.4c1.4,0,2.5-1.1,2.5-2.5v-4.1h0.7v7.1h-0.7v-1.3c-0.5,0.8-1.3,1.5-2.6,1.5
		C214,289.2,212.9,287.9,212.9,286.2z"/>
	<path d="M61.5,297.9h0.7v1.3c0.5-0.8,1.3-1.5,2.6-1.5c1.8,0,2.9,1.2,2.9,2.9v4.4h-0.7v-4.2c0-1.5-0.8-2.4-2.3-2.4
		c-1.4,0-2.5,1.1-2.5,2.5v4.1h-0.7V297.9z"/>
	<path d="M69.1,302.9L69.1,302.9c0-1.5,1.3-2.4,3.1-2.4c1,0,1.7,0.1,2.4,0.3v-0.3c0-1.4-0.9-2.2-2.4-2.2c-0.9,0-1.6,0.2-2.2,0.6
		l-0.3-0.6c0.8-0.4,1.6-0.6,2.5-0.6c1,0,1.7,0.3,2.3,0.8c0.5,0.5,0.7,1.1,0.7,2v4.5h-0.7v-1.2c-0.5,0.7-1.4,1.4-2.7,1.4
		C70.5,305.2,69.1,304.4,69.1,302.9z M74.6,302.3v-0.8c-0.6-0.2-1.4-0.3-2.4-0.3c-1.5,0-2.4,0.7-2.4,1.7v0c0,1,1,1.6,2.1,1.6
		C73.3,304.5,74.6,303.6,74.6,302.3z"/>
	<path d="M77.3,294.8H78v4.4c0.5-0.8,1.3-1.5,2.6-1.5c1.8,0,2.9,1.2,2.9,2.9v4.4h-0.7v-4.2c0-1.5-0.8-2.4-2.3-2.4
		c-1.4,0-2.5,1.1-2.5,2.5v4.1h-0.7V294.8z"/>
	<path d="M85.6,294.8h0.7V305h-0.7V294.8z"/>
	<path d="M87.9,302.9L87.9,302.9c0-1.5,1.3-2.4,3.1-2.4c1,0,1.7,0.1,2.4,0.3v-0.3c0-1.4-0.9-2.2-2.4-2.2c-0.9,0-1.6,0.2-2.2,0.6
		l-0.3-0.6c0.8-0.4,1.6-0.6,2.5-0.6c1,0,1.7,0.3,2.3,0.8c0.5,0.5,0.7,1.1,0.7,2v4.5h-0.7v-1.2c-0.5,0.7-1.4,1.4-2.7,1.4
		C89.4,305.2,87.9,304.4,87.9,302.9z M93.4,302.3v-0.8c-0.6-0.2-1.4-0.3-2.4-0.3c-1.5,0-2.4,0.7-2.4,1.7v0c0,1,1,1.6,2.1,1.6
		C92.2,304.5,93.4,303.6,93.4,302.3z M92.2,294.8l0.9,0.4l-1.5,1.4h-0.6L92.2,294.8z"/>
	<path d="M95.5,304.1l0.4-0.5c0.8,0.6,1.7,0.9,2.6,0.9c1,0,1.7-0.5,1.7-1.4v0c0-0.8-0.9-1.1-1.9-1.4c-1.2-0.3-2.5-0.7-2.5-2v0
		c0-1.1,1-2,2.4-2c0.9,0,1.8,0.3,2.5,0.8l-0.4,0.6c-0.7-0.4-1.4-0.7-2.2-0.7c-1,0-1.6,0.5-1.6,1.2v0c0,0.8,1,1.1,2,1.4
		c1.1,0.3,2.4,0.7,2.4,2v0c0,1.3-1.1,2.1-2.5,2.1C97.4,305.1,96.3,304.7,95.5,304.1z"/>
	<path d="M102.8,297.9h0.7v7.1h-0.7V297.9z M104,294.8l0.9,0.4l-1.5,1.4h-0.6L104,294.8z"/>
	<path d="M106.1,303.2v-4.7h-1v-0.6h1v-2.3h0.7v2.3h2.5v0.6h-2.5v4.6c0,1,0.6,1.4,1.4,1.4c0.4,0,0.6-0.1,1.1-0.3v0.6
		c-0.4,0.2-0.7,0.3-1.2,0.3C107,305.1,106.1,304.5,106.1,303.2z"/>
	<path d="M110.2,301.4L110.2,301.4c0-2.1,1.5-3.8,3.4-3.8c2,0,3.3,1.6,3.3,3.7c0,0.1,0,0.2,0,0.3h-5.9c0.1,1.8,1.4,2.8,2.8,2.8
		c1.1,0,1.9-0.5,2.5-1.1l0.5,0.4c-0.7,0.8-1.6,1.3-3,1.3C111.8,305.2,110.2,303.7,110.2,301.4z M116.1,301.1
		c-0.1-1.4-0.9-2.8-2.6-2.8c-1.4,0-2.5,1.2-2.6,2.8H116.1z"/>
	<path d="M122.2,297.9h0.7v1.6c0.6-0.9,1.5-1.8,2.9-1.8c1.7,0,3.5,1.4,3.5,3.7v0c0,2.3-1.8,3.7-3.5,3.7c-1.4,0-2.4-0.8-2.9-1.7v3.8
		h-0.7V297.9z M128.6,301.5L128.6,301.5c0-1.9-1.3-3.1-2.8-3.1c-1.5,0-2.9,1.2-2.9,3.1v0c0,1.8,1.4,3.1,2.9,3.1
		C127.4,304.5,128.6,303.4,128.6,301.5z"/>
	<path d="M131.2,294.8h0.7V305h-0.7V294.8z"/>
	<path d="M134.1,297.9h0.7v1.3c0.5-0.8,1.3-1.5,2.6-1.5c1.8,0,2.9,1.2,2.9,2.9v4.4h-0.7v-4.2c0-1.5-0.8-2.4-2.3-2.4
		c-1.4,0-2.5,1.1-2.5,2.5v4.1h-0.7V297.9z"/>
	<path d="M141.5,307l0.2-0.6c0.4,0.2,0.7,0.3,1.2,0.3c0.7,0,1.2-0.4,1.8-1.7l-3.4-7.1h0.8l3,6.4l2.6-6.4h0.8l-3.1,7.4
		c-0.6,1.5-1.4,2-2.4,2C142.4,307.3,142,307.2,141.5,307z M145.9,294.8l0.9,0.4l-1.5,1.4h-0.6L145.9,294.8z"/>
	<path d="M153.7,294.8h0.7v7.7l4.4-4.6h0.9l-3.1,3.2l3.2,4h-0.9l-2.8-3.5l-1.7,1.8v1.7h-0.7V294.8z"/>
	<path d="M160.3,301.5L160.3,301.5c0-2,1.6-3.8,3.7-3.8c2.1,0,3.7,1.7,3.7,3.7v0c0,2-1.6,3.7-3.7,3.7
		C161.8,305.2,160.3,303.5,160.3,301.5z M166.9,301.5L166.9,301.5c0-1.8-1.3-3.1-2.9-3.1c-1.7,0-2.9,1.4-2.9,3.1v0
		c0,1.7,1.3,3.1,2.9,3.1C165.6,304.5,166.9,303.1,166.9,301.5z"/>
	<path d="M168.7,304.1l0.4-0.5c0.8,0.6,1.7,0.9,2.6,0.9c1,0,1.7-0.5,1.7-1.4v0c0-0.8-0.9-1.1-1.9-1.4c-1.2-0.3-2.5-0.7-2.5-2v0
		c0-1.1,1-2,2.4-2c0.9,0,1.8,0.3,2.5,0.8l-0.4,0.6c-0.7-0.4-1.4-0.7-2.2-0.7c-1,0-1.6,0.5-1.6,1.2v0c0,0.8,1,1.1,2,1.4
		c1.1,0.3,2.4,0.7,2.4,2v0c0,1.3-1.1,2.1-2.5,2.1C170.6,305.1,169.4,304.7,168.7,304.1z M171.8,296.7h-0.6l-1.4-1.7h0.7l1,1l1-1h0.6
		L171.8,296.7z"/>
	<path d="M179,302.9L179,302.9c0-1.5,1.3-2.4,3.1-2.4c1,0,1.7,0.1,2.4,0.3v-0.3c0-1.4-0.9-2.2-2.4-2.2c-0.9,0-1.6,0.2-2.2,0.6
		l-0.3-0.6c0.8-0.4,1.6-0.6,2.5-0.6c1,0,1.7,0.3,2.3,0.8c0.5,0.5,0.7,1.1,0.7,2v4.5h-0.7v-1.2c-0.5,0.7-1.4,1.4-2.7,1.4
		C180.4,305.2,179,304.4,179,302.9z M184.5,302.3v-0.8c-0.6-0.2-1.4-0.3-2.4-0.3c-1.5,0-2.4,0.7-2.4,1.7v0c0,1,1,1.6,2.1,1.6
		C183.3,304.5,184.5,303.6,184.5,302.3z"/>
	<path d="M191.7,303.5v1.5H191v-10.2h0.7v4.7c0.6-0.9,1.5-1.8,2.9-1.8c1.7,0,3.5,1.4,3.5,3.7v0c0,2.3-1.8,3.7-3.5,3.7
		C193.2,305.2,192.3,304.4,191.7,303.5z M197.4,301.5L197.4,301.5c0-1.9-1.3-3.1-2.8-3.1c-1.5,0-2.9,1.2-2.9,3.1v0
		c0,1.8,1.4,3.1,2.9,3.1C196.1,304.5,197.4,303.4,197.4,301.5z"/>
	<path d="M199.7,302.2v-4.4h0.7v4.2c0,1.5,0.8,2.4,2.3,2.4c1.4,0,2.5-1.1,2.5-2.5v-4.1h0.7v7.1h-0.7v-1.3c-0.5,0.8-1.3,1.5-2.6,1.5
		C200.7,305.2,199.7,303.9,199.7,302.2z"/>
	<path d="M207.5,301.5L207.5,301.5c0-2.4,1.8-3.8,3.5-3.8c1.4,0,2.4,0.8,2.9,1.7v-4.6h0.7V305h-0.7v-1.6c-0.6,0.9-1.5,1.8-2.9,1.8
		C209.3,305.2,207.5,303.8,207.5,301.5z M214,301.4L214,301.4c0-1.9-1.4-3.1-2.9-3.1c-1.6,0-2.8,1.1-2.8,3.1v0
		c0,1.9,1.3,3.1,2.8,3.1C212.5,304.5,214,303.3,214,301.4z"/>
	<path d="M216.3,301.4L216.3,301.4c0-2.1,1.5-3.8,3.4-3.8c2,0,3.3,1.6,3.3,3.7c0,0.1,0,0.2,0,0.3H217c0.1,1.8,1.4,2.8,2.8,2.8
		c1.1,0,1.9-0.5,2.5-1.1l0.5,0.4c-0.7,0.8-1.6,1.3-3,1.3C217.9,305.2,216.3,303.7,216.3,301.4z M222.2,301.1
		c-0.1-1.4-0.9-2.8-2.6-2.8c-1.4,0-2.5,1.2-2.6,2.8H222.2z"/>
	<path d="M76,313.9h0.7v1.6c0.6-0.9,1.5-1.8,2.9-1.8c1.7,0,3.5,1.4,3.5,3.7v0c0,2.3-1.8,3.7-3.5,3.7c-1.4,0-2.4-0.8-2.9-1.7v3.8H76
		V313.9z M82.4,317.5L82.4,317.5c0-1.9-1.3-3.1-2.8-3.1c-1.5,0-2.9,1.2-2.9,3.1v0c0,1.8,1.4,3.1,2.9,3.1
		C81.1,320.5,82.4,319.4,82.4,317.5z"/>
	<path d="M86.8,312.7h-0.6l-1.4-1.7h0.7l1,1l1-1h0.6L86.8,312.7z M84.8,313.9h0.7v2c0.6-1.3,1.8-2.2,3.2-2.1v0.8h-0.1
		c-1.7,0-3.1,1.2-3.1,3.6v2.9h-0.7V313.9z"/>
	<path d="M89.2,317.4L89.2,317.4c0-2.1,1.5-3.8,3.4-3.8c2,0,3.3,1.6,3.3,3.7c0,0.1,0,0.2,0,0.3h-5.9c0.1,1.8,1.4,2.8,2.8,2.8
		c1.1,0,1.9-0.5,2.5-1.1l0.5,0.4c-0.7,0.8-1.6,1.3-3,1.3C90.8,321.2,89.2,319.7,89.2,317.4z M95.1,317.1c-0.1-1.4-0.9-2.8-2.6-2.8
		c-1.4,0-2.5,1.2-2.6,2.8H95.1z"/>
	<path d="M97,317.5L97,317.5c0-2.4,1.8-3.8,3.5-3.8c1.4,0,2.4,0.8,2.9,1.7v-4.6h0.7V321h-0.7v-1.6c-0.6,0.9-1.5,1.8-2.9,1.8
		C98.7,321.2,97,319.8,97,317.5z M103.4,317.4L103.4,317.4c0-1.9-1.4-3.1-2.9-3.1c-1.6,0-2.8,1.1-2.8,3.1v0c0,1.9,1.3,3.1,2.8,3.1
		C102,320.5,103.4,319.3,103.4,317.4z"/>
	<path d="M106.3,313.9h0.7v1.3c0.5-0.8,1.3-1.5,2.6-1.5c1.8,0,2.9,1.2,2.9,2.9v4.4h-0.7v-4.2c0-1.5-0.8-2.4-2.3-2.4
		c-1.4,0-2.5,1.1-2.5,2.5v4.1h-0.7V313.9z"/>
	<path d="M113.9,317.5L113.9,317.5c0-2,1.6-3.8,3.7-3.8c2.1,0,3.7,1.7,3.7,3.7v0c0,2-1.6,3.7-3.7,3.7
		C115.5,321.2,113.9,319.5,113.9,317.5z M120.5,317.5L120.5,317.5c0-1.8-1.3-3.1-2.9-3.1c-1.7,0-2.9,1.4-2.9,3.1v0
		c0,1.7,1.3,3.1,2.9,3.1C119.3,320.5,120.5,319.1,120.5,317.5z"/>
	<path d="M122.3,320.1l0.4-0.5c0.8,0.6,1.7,0.9,2.6,0.9c1,0,1.7-0.5,1.7-1.4v0c0-0.8-0.9-1.1-1.9-1.4c-1.2-0.3-2.5-0.7-2.5-2v0
		c0-1.1,1-2,2.4-2c0.9,0,1.8,0.3,2.5,0.8l-0.4,0.6c-0.7-0.4-1.4-0.7-2.2-0.7c-1,0-1.6,0.5-1.6,1.2v0c0,0.8,1,1.1,2,1.4
		c1.1,0.3,2.4,0.7,2.4,2v0c0,1.3-1.1,2.1-2.5,2.1C124.2,321.1,123.1,320.7,122.3,320.1z"/>
	<path d="M129.7,319.2v-4.7h-1v-0.6h1v-2.3h0.7v2.3h2.5v0.6h-2.5v4.6c0,1,0.6,1.4,1.4,1.4c0.4,0,0.6-0.1,1.1-0.3v0.6
		c-0.4,0.2-0.7,0.3-1.2,0.3C130.6,321.1,129.7,320.5,129.7,319.2z"/>
	<path d="M134.5,313.9h0.7v1.3c0.5-0.8,1.3-1.5,2.6-1.5c1.8,0,2.9,1.2,2.9,2.9v4.4H140v-4.2c0-1.5-0.8-2.4-2.3-2.4
		c-1.4,0-2.5,1.1-2.5,2.5v4.1h-0.7V313.9z"/>
	<path d="M142.2,317.4L142.2,317.4c0-2.1,1.5-3.8,3.4-3.8c2,0,3.3,1.6,3.3,3.7c0,0.1,0,0.2,0,0.3h-5.9c0.1,1.8,1.4,2.8,2.8,2.8
		c1.1,0,1.9-0.5,2.5-1.1l0.5,0.4c-0.7,0.8-1.6,1.3-3,1.3C143.8,321.2,142.2,319.7,142.2,317.4z M148.1,317.1
		c-0.1-1.4-0.9-2.8-2.6-2.8c-1.4,0-2.5,1.2-2.6,2.8H148.1z M145.9,312.7h-0.6l-1.4-1.7h0.7l1,1l1-1h0.6L145.9,312.7z"/>
	<path d="M153.5,313.9h0.8l2.7,6.4l2.7-6.4h0.8l-3.2,7.2h-0.6L153.5,313.9z"/>
	<path d="M161.2,323l0.2-0.6c0.4,0.2,0.7,0.3,1.2,0.3c0.7,0,1.2-0.4,1.8-1.7l-3.4-7.1h0.8l3,6.4l2.6-6.4h0.8l-3.1,7.4
		c-0.6,1.5-1.4,2-2.4,2C162.1,323.3,161.7,323.2,161.2,323z"/>
	<path d="M168.6,313.9h0.8l2.7,6.4l2.7-6.4h0.8l-3.2,7.2h-0.6L168.6,313.9z"/>
	<path d="M176.2,317.4L176.2,317.4c0-2.1,1.5-3.8,3.4-3.8c2,0,3.3,1.6,3.3,3.7c0,0.1,0,0.2,0,0.3h-5.9c0.1,1.8,1.4,2.8,2.8,2.8
		c1.1,0,1.9-0.5,2.5-1.1l0.5,0.4c-0.7,0.8-1.6,1.3-3,1.3C177.8,321.2,176.2,319.7,176.2,317.4z M182.1,317.1
		c-0.1-1.4-0.9-2.8-2.6-2.8c-1.4,0-2.5,1.2-2.6,2.8H182.1z"/>
	<path d="M183.7,320.6l5.2-6.1h-5v-0.6h6v0.4l-5.2,6.1h5.2v0.6h-6.2V320.6z"/>
	<path d="M190.8,317.4L190.8,317.4c0-2.1,1.5-3.8,3.4-3.8c2,0,3.3,1.6,3.3,3.7c0,0.1,0,0.2,0,0.3h-5.9c0.1,1.8,1.4,2.8,2.8,2.8
		c1.1,0,1.9-0.5,2.5-1.1l0.5,0.4c-0.7,0.8-1.6,1.3-3,1.3C192.5,321.2,190.8,319.7,190.8,317.4z M196.8,317.1
		c-0.1-1.4-0.9-2.8-2.6-2.8c-1.4,0-2.5,1.2-2.6,2.8H196.8z"/>
	<path d="M199.1,313.9h0.7v1.3c0.5-0.8,1.3-1.5,2.6-1.5c1.8,0,2.9,1.2,2.9,2.9v4.4h-0.7v-4.2c0-1.5-0.8-2.4-2.3-2.4
		c-1.4,0-2.5,1.1-2.5,2.5v4.1h-0.7V313.9z"/>
	<path d="M207.1,319.8h0.9v1.2h-0.9V319.8z"/>
</g>
<g>
	<g>
		<path d="M44.5,56l5.2-4.4c0.9,1.3,1.8,2.1,3.1,2.1c1.3,0,2.2-1.1,2.2-2.8V36.1h7.8v14.7c0,3.1-0.7,5.3-2.5,7
			c-1.6,1.6-4,2.6-6.9,2.6C48.8,60.4,46.2,58.5,44.5,56z"/>
		<path d="M63.7,57.7l2.6-4.4c2.2,1.4,4.8,2.1,6.9,2.1c0.7,0,1.1-0.2,1.1-0.6v-0.1c0-0.4-0.3-0.6-2.2-1.1c-4.7-1.2-7.6-2.4-7.6-6.3
			v-0.1c0-4.1,3.3-6.4,8.1-6.4c3.1,0,6.1,0.8,8.3,2.1l-2.4,4.6c-2-1.1-4.4-1.7-5.9-1.7c-0.7,0-1.1,0.2-1.1,0.6v0.1
			c0,0.4,0.4,0.6,2.3,1.1c4.7,1.2,7.5,2.4,7.5,6.3v0.1c0,4-3,6.4-8.1,6.4C69.6,60.3,66.3,59.4,63.7,57.7z"/>
		<path d="M82.3,50.7L82.3,50.7c0-5.6,4-9.8,9.6-9.8c6.6,0,9.7,4.6,9.7,10.2c0,0.4,0,0.9,0,1.3H89.5c0.5,1.6,1.8,2.5,3.5,2.5
			c1.4,0,2.5-0.6,3.8-1.9l4.1,3.3c-1.8,2.4-4.5,4-8.5,4C86.4,60.3,82.3,56.5,82.3,50.7z M94.4,49c-0.2-1.8-1.2-2.8-2.6-2.8
			c-1.3,0-2.2,1.1-2.4,2.8H94.4z"/>
		<path d="M103.2,41.3h7.7v2.5c1.2-1.5,3.1-2.9,5.6-2.9c2.5,0,4.5,1.1,5.5,3.1c1.6-1.8,3.4-3.1,6.3-3.1c4,0,6.4,2.6,6.4,6.8v12.2
			H127v-9.8c0-1.6-0.9-2.4-2-2.4c-1.1,0-2.1,0.9-2.1,2.4v9.8h-7.7v-9.8c0-1.6-0.9-2.4-2-2.4c-1.1,0-2.1,0.9-2.1,2.4v9.8h-7.7V41.3z"
			/>
		<path d="M145.5,41.3h7.7v2.3c1.3-1.4,2.7-2.7,5.5-2.7c4.5,0,8,3.9,8,9.6v0.1c0,5.9-3.5,9.8-7.9,9.8c-2.8,0-4.4-1.2-5.6-2.5v7.5
			h-7.7V41.3z M159.2,50.6L159.2,50.6c0-1.9-1.3-3.4-3.1-3.4c-1.8,0-3.1,1.5-3.1,3.3v0.1c0,1.8,1.3,3.3,3.1,3.3
			C157.9,54,159.2,52.5,159.2,50.6z"/>
		<path d="M168.6,35.1h7.7v24.8h-7.7V35.1z"/>
		<path d="M178.7,41.3h7.7v2.6c1.2-1.5,3.1-3,5.7-3c3.9,0,6.4,2.6,6.4,6.8v12.2h-7.7v-9.8c0-1.6-1-2.5-2.1-2.5s-2.2,0.9-2.2,2.5v9.8
			h-7.7V41.3z"/>
		<path d="M199.4,63.5l2.2-5.3c1.4,0.8,2.7,1.2,3.4,1.2c0.4,0,0.8-0.1,1.3-0.3L199,41.3h8l3.2,9.8l3-9.8h7.9l-6.4,17.3
			c-1.8,4.9-3.8,6.8-8.1,6.8C203.9,65.4,201.5,64.7,199.4,63.5z M210.6,33.6l7.5,1.9l-5.6,4.6h-5.2L210.6,33.6z"/>
		<path d="M226.1,46.6l0.4-0.4c3.6-0.5,4.7-1.3,4.7-2.3v0c0-0.8-0.7-1.3-2-1.3s-3.2,0.9-4.8,2.1l-3.7-5.5c2.2-1.9,5.2-3.4,9.3-3.4
			c5.1,0,8.7,2.9,8.7,7.2V43c0,4.2-2.7,6.1-6.6,7.2l-0.4,2.3h-4.7L226.1,46.6z M225.4,53.8h7.9v6.1h-7.9V53.8z"/>
	</g>
	<g>
		<path class="st0" d="M72.4,70.1h5.5l6.2,7.7v-7.7h5.8v17.5h-5.2l-6.5-8.1v8.1h-5.8V70.1z"/>
		<path class="st0" d="M91.2,83.8L91.2,83.8c0-2.8,2-4.3,5.2-4.3c1.1,0,2.6,0.3,3.2,0.5v-0.2c0-1.3-0.8-2-2.5-2
			c-1.4,0-2.6,0.3-3.8,0.8l-1-3.8c1.6-0.6,3.4-1,5.7-1c2.8,0,4.6,0.6,5.8,1.8c1,1,1.4,2.3,1.4,4.3v7.8h-5.7v-1.4
			c-0.9,1-2.2,1.7-3.9,1.7C93.1,88,91.2,86.5,91.2,83.8z M99.7,82.6V82c-0.3-0.1-0.8-0.2-1.3-0.2c-1.1,0-1.7,0.7-1.7,1.5v0
			c0,0.8,0.6,1.3,1.3,1.3C98.9,84.7,99.7,83.9,99.7,82.6z"/>
		<path class="st0" d="M106.9,69.4h5.7v6.4c0.9-1.1,2.2-2.1,4.2-2.1c2.9,0,4.7,1.9,4.7,5v9h-5.7v-7.2c0-1.2-0.7-1.8-1.5-1.8
			c-0.8,0-1.6,0.7-1.6,1.8v7.2h-5.7V69.4z"/>
		<path class="st0" d="M123.1,69.4h5.7v18.2h-5.7V69.4z"/>
		<path class="st0" d="M130,83.8L130,83.8c0-2.8,2-4.3,5.2-4.3c1.1,0,2.6,0.3,3.2,0.5v-0.2c0-1.3-0.8-2-2.5-2
			c-1.4,0-2.6,0.3-3.8,0.8l-1-3.8c1.6-0.6,3.4-1,5.7-1c2.8,0,4.6,0.6,5.8,1.8c1,1,1.4,2.3,1.4,4.3v7.8h-5.7v-1.4
			c-0.9,1-2.2,1.7-3.9,1.7C131.8,88,130,86.5,130,83.8z M138.4,82.6V82c-0.3-0.1-0.8-0.2-1.3-0.2c-1.1,0-1.7,0.7-1.7,1.5v0
			c0,0.8,0.6,1.3,1.3,1.3C137.7,84.7,138.4,83.9,138.4,82.6z"/>
		<path class="st0" d="M144.7,86l1.9-3.2c1.6,1,3.5,1.5,5,1.5c0.6,0,0.8-0.1,0.8-0.4v-0.1c0-0.3-0.3-0.4-1.6-0.8
			c-3.4-0.8-5.6-1.8-5.6-4.6v-0.1c0-3,2.4-4.7,5.9-4.7c2.3,0,4.5,0.6,6.1,1.6l-1.8,3.4c-1.4-0.8-3.2-1.3-4.3-1.3
			c-0.5,0-0.8,0.1-0.8,0.4v0c0,0.3,0.3,0.5,1.7,0.8c3.4,0.9,5.5,1.8,5.5,4.6v0c0,3-2.2,4.7-5.9,4.7C149,88,146.6,87.3,144.7,86z"/>
		<path class="st0" d="M165.1,74h5.7v1.8c0.9-1.1,2.2-2.1,4.1-2.1c1.8,0,3.3,0.8,4,2.2c1.2-1.3,2.5-2.2,4.6-2.2c2.9,0,4.7,1.9,4.7,5
			v9h-5.7v-7.2c0-1.1-0.7-1.8-1.5-1.8s-1.6,0.6-1.6,1.8v7.2h-5.7v-7.2c0-1.1-0.7-1.8-1.5-1.8c-0.8,0-1.6,0.6-1.6,1.8v7.2h-5.7V74z"
			/>
		<path class="st0" d="M189.5,80.9L189.5,80.9c0-4.1,2.9-7.2,7-7.2c4.8,0,7.1,3.4,7.1,7.5c0,0.3,0,0.6,0,0.9h-8.8
			c0.4,1.2,1.3,1.8,2.6,1.8c1,0,1.9-0.5,2.8-1.4l3,2.4c-1.3,1.7-3.3,3-6.2,3C192.5,88,189.5,85.1,189.5,80.9z M198.7,72.9h-4.1
			l-3.3-4.3h3.2l2.2,1.4l2.2-1.4h3.1L198.7,72.9z M198.4,79.6c-0.1-1.3-0.9-2-1.9-2c-0.9,0-1.6,0.8-1.8,2H198.4z"/>
		<path class="st0" d="M204.9,73.9v-3.7h6.3v3.7l-1.8,8.3h-2.8L204.9,73.9z M205.1,83.1h5.8v4.5h-5.8V83.1z"/>
	</g>
</g>
<g>
	<rect x="167.4" y="338.9" class="st1" width="0.3" height="30.4"/>
	<path class="st2" d="M202.7,369.6h-35.2v-0.5h35.2c0.8,0,1.4-0.6,1.4-1.4v-27.2c0-0.8-0.6-1.4-1.4-1.4h-35.2v-0.5h35.2
		c1,0,1.9,0.8,1.9,1.9v27.2C204.6,368.7,203.7,369.6,202.7,369.6z"/>
	<path class="st2" d="M167.5,369.6h-87c-1,0-1.9-0.8-1.9-1.9v-27.2c0-1,0.8-1.9,1.9-1.9h87v0.5h-87c-0.8,0-1.4,0.6-1.4,1.4v27.2
		c0,0.8,0.6,1.4,1.4,1.4h87V369.6z"/>
	<g>
		<g>
			<g>
				<path d="M89.6,350.5h2.5c1.5,0,2.6,0.8,2.6,2.1v0c0,1.5-1.3,2.2-2.7,2.2h-1.9v2.6h-0.5V350.5z M92,354.4c1.3,0,2.2-0.7,2.2-1.7
					v0c0-1.1-0.9-1.7-2.1-1.7h-2v3.4H92z"/>
				<path d="M95.7,354.1L95.7,354.1c0-1.9,1.4-3.6,3.5-3.6c2.1,0,3.5,1.7,3.5,3.6v0c0,1.9-1.4,3.6-3.5,3.6
					C97.1,357.7,95.7,356,95.7,354.1z M102.2,354.1L102.2,354.1c0-1.7-1.3-3.2-3-3.2s-3,1.4-3,3.1v0c0,1.7,1.3,3.1,3,3.1
					S102.2,355.8,102.2,354.1z"/>
				<path d="M103.5,350.5h0.6l2.2,6.2l2-6.2h0.4l2,6.2l2.2-6.2h0.5l-2.5,7h-0.4l-2-6.1l-2,6.1H106L103.5,350.5z"/>
				<path d="M114.8,350.5h5v0.5h-4.5v2.7h4v0.5h-4v2.8h4.5v0.5h-5V350.5z"/>
				<path d="M121.3,350.5h2.9c0.9,0,1.5,0.3,2,0.7c0.3,0.3,0.5,0.8,0.5,1.3v0c0,1.2-0.9,1.8-2,2l2.3,3h-0.7l-2.2-2.9h-2.3v2.9h-0.5
					V350.5z M124.2,354.2c1.2,0,2-0.6,2-1.6v0c0-0.9-0.7-1.5-2-1.5h-2.4v3.1H124.2z"/>
				<path d="M128.4,350.5h5v0.5h-4.5v2.7h4v0.5h-4v2.8h4.5v0.5h-5V350.5z"/>
				<path d="M134.9,350.5h2.3c2.2,0,3.7,1.5,3.7,3.5v0c0,2-1.5,3.5-3.7,3.5h-2.3V350.5z M137.2,357.1c1.9,0,3.2-1.3,3.2-3v0
					c0-1.7-1.2-3-3.2-3h-1.8v6H137.2z"/>
				<path d="M145.3,350.5h2.9c0.8,0,1.4,0.2,1.8,0.6c0.3,0.3,0.4,0.7,0.4,1.1v0c0,0.9-0.6,1.4-1.2,1.7c0.8,0.2,1.6,0.7,1.6,1.7v0
					c0,1.2-1,1.9-2.5,1.9h-3V350.5z M148.1,353.8c1,0,1.8-0.5,1.8-1.4v0c0-0.8-0.6-1.3-1.7-1.3h-2.4v2.7H148.1z M148.3,357.1
					c1.2,0,2-0.5,2-1.4v0c0-0.9-0.8-1.4-2.1-1.4h-2.4v2.8H148.3z"/>
				<path d="M154.3,354.8l-3-4.2h0.6l2.6,3.8l2.6-3.8h0.6l-3,4.2v2.8h-0.5V354.8z"/>
			</g>
		</g>
	</g>
	<g>
		<g>
			<path class="st3" d="M181.7,350.7L181.7,350.7c0-0.9,0.7-1.6,1.6-1.6c1,0,1.6,0.7,1.6,1.6v0c0,0.9-0.7,1.6-1.6,1.6
				C182.4,352.3,181.7,351.6,181.7,350.7z M184.4,350.7L184.4,350.7c0-0.6-0.4-1.1-1.1-1.1c-0.6,0-1.1,0.5-1.1,1.1v0
				c0,0.6,0.4,1.1,1.1,1.1C184,351.8,184.4,351.3,184.4,350.7z"/>
			<path class="st3" d="M185.5,349.1h1.2c0.7,0,1.2,0.4,1.2,1v0c0,0.7-0.6,1.1-1.2,1.1h-0.6v1h-0.5V349.1z M186.7,350.8
				c0.4,0,0.7-0.2,0.7-0.6v0c0-0.4-0.3-0.6-0.7-0.6h-0.6v1.1H186.7z"/>
			<path class="st3" d="M188.3,349.1h2.3v0.5h-1.8v0.8h1.6v0.5h-1.6v0.8h1.8v0.5h-2.3V349.1z"/>
			<path class="st3" d="M191.2,349.1h0.5l1.7,2.2v-2.2h0.5v3.1h-0.5l-1.7-2.2v2.2h-0.5V349.1z"/>
		</g>
		<g>
			<path class="st4" d="M181.8,353.1h1.4c1.3,0,2.1,0.7,2.1,1.8v0c0,1-0.8,1.8-2.1,1.8h-1.4V353.1z M183.2,355.9c0.6,0,1-0.3,1-0.9
				v0c0-0.6-0.4-0.9-1-0.9h-0.4v1.8H183.2z"/>
			<path class="st4" d="M186.6,353.1h1l1.5,3.7H188l-0.3-0.6h-1.4l-0.3,0.6H185L186.6,353.1z M187.5,355.3l-0.4-1l-0.4,1H187.5z"/>
			<path class="st4" d="M189.7,354h-1.1v-0.9h3.2v0.9h-1.1v2.8h-1V354z"/>
			<path class="st4" d="M192.9,353.1h1l1.5,3.7h-1.1l-0.3-0.6h-1.4l-0.3,0.6h-1.1L192.9,353.1z M193.8,355.3l-0.4-1l-0.4,1H193.8z"
				/>
		</g>
		<g>
			<path class="st0" d="M181.8,357.6h1.7v3.5h2.3v1.4h-4V357.6z"/>
			<path class="st0" d="M187.8,357.6h1.6l2.1,5h-1.8l-0.3-0.7h-1.7l-0.3,0.7h-1.8L187.8,357.6z M189.1,360.7l-0.5-1.2l-0.5,1.2
				H189.1z"/>
			<path class="st0" d="M191.6,357.6h2.8c0.7,0,1.1,0.2,1.4,0.4c0.2,0.2,0.3,0.4,0.3,0.8v0c0,0.6-0.4,0.9-0.9,1.1
				c0.6,0.2,1,0.5,1,1.2v0c0,0.8-0.6,1.4-1.9,1.4h-2.7V357.6z M193.9,359.6c0.4,0,0.5-0.1,0.5-0.3v0c0-0.2-0.2-0.3-0.5-0.3h-0.7v0.7
				H193.9z M194,361.3c0.4,0,0.5-0.1,0.5-0.4v0c0-0.2-0.2-0.4-0.5-0.4h-0.8v0.7H194z"/>
		</g>
		<path class="st3" d="M179.7,362.6h-3.1c-1.2,0-2.2-1-2.2-2.2c0-0.4,0.1-0.8,0.3-1.1c0.1-0.2,4.5-8.2,4.5-8.3
			c0.1-0.2,0.2-0.5,0.2-0.8v-2.6c0-0.5-0.2-1-0.7-1.3l0.5-0.6c0.6,0.5,1,1.2,1,1.9v2.6c0,0.4-0.1,0.8-0.3,1.1
			c-0.1,0.2-4.4,8.1-4.5,8.4c-0.1,0.2-0.2,0.5-0.2,0.7c0,0.8,0.7,1.5,1.5,1.5h3.1V362.6z"/>
		<path class="st3" d="M182.5,347.5h-0.8c0-0.8,0.4-1.5,1-1.9l0.5,0.6C182.8,346.5,182.5,347,182.5,347.5z"/>
	</g>
</g>
<rect x="72.7" y="117.4" class="st5" width="138" height="138"/>
</svg>
