<?xml version="1.0" encoding="utf-8"?>
<!-- Generator: Adobe Illustrator 23.1.0, SVG Export Plug-In . SVG Version: 6.00 Build 0)  -->
<svg version="1.1" id="Layer_1" xmlns="http://www.w3.org/2000/svg" xmlns:xlink="http://www.w3.org/1999/xlink" x="0px" y="0px"
	 viewBox="0 0 283.5 396.9" style="enable-background:new 0 0 283.5 396.9;" xml:space="preserve">
<style type="text/css">
	.st0{font-family:'Gotham-Light';}
	.st1{font-size:14px;}
	.st2{font-family:'Gotham-Ultra';}
	.st3{font-size:34px;}
	.st4{fill:#97B14F;}
	.st5{font-size:25px;}
	.st6{fill:#DCDFE4;}
	.st7{fill:#A0A3A8;}
	.st8{font-size:10px;}
	.st9{fill:#4B6E9D;}
	.st10{fill:#EC6737;}
	.st11{fill:#00FF00;}
</style>
<path d="M279.5,4v388.9H4V4H279.5 M283.5,0H0v396.9h283.5V0L283.5,0z"/>
<text transform="matrix(1 0 0 1 62.8221 289.0044)"><tspan x="0" y="0" class="st0 st1">Naskenováním QR kódu</tspan><tspan x="-3" y="16" class="st0 st1">nahlásíte plný koš a bude</tspan><tspan x="11" y="32" class="st0 st1">přednostně vyvezen.</tspan></text>
<g>
	<text transform="matrix(1 0 0 1 44.2386 59.8942)" class="st2 st3">Jsem plný?</text>
	<text transform="matrix(1 0 0 1 71.3831 87.645)" class="st4 st2 st5">Nahlas mě!</text>
</g>
<g>
	<rect x="167.4" y="338.9" class="st6" width="0.3" height="30.4"/>
	<path class="st7" d="M202.7,369.6h-35.2v-0.5h35.2c0.8,0,1.4-0.6,1.4-1.4v-27.2c0-0.8-0.6-1.4-1.4-1.4h-35.2v-0.5h35.2
		c1,0,1.9,0.8,1.9,1.9v27.2C204.6,368.7,203.7,369.6,202.7,369.6z"/>
	<path class="st7" d="M167.5,369.6h-87c-1,0-1.9-0.8-1.9-1.9v-27.2c0-1,0.8-1.9,1.9-1.9h87v0.5h-87c-0.8,0-1.4,0.6-1.4,1.4v27.2
		c0,0.8,0.6,1.4,1.4,1.4h87V369.6z"/>
	<g>
		<g>
			<text transform="matrix(1 0 0 1 87.8894 357.5365)" class="st0 st8">Powered by</text>
		</g>
	</g>
	<g>
		<g>
			<path class="st9" d="M181.7,350.7L181.7,350.7c0-0.9,0.7-1.6,1.6-1.6c1,0,1.6,0.7,1.6,1.6v0c0,0.9-0.7,1.6-1.6,1.6
				C182.4,352.3,181.7,351.6,181.7,350.7z M184.4,350.7L184.4,350.7c0-0.6-0.4-1.1-1.1-1.1c-0.6,0-1.1,0.5-1.1,1.1v0
				c0,0.6,0.4,1.1,1.1,1.1C184,351.8,184.4,351.3,184.4,350.7z"/>
			<path class="st9" d="M185.5,349.1h1.2c0.7,0,1.2,0.4,1.2,1v0c0,0.7-0.6,1.1-1.2,1.1h-0.6v1h-0.5V349.1z M186.7,350.8
				c0.4,0,0.7-0.2,0.7-0.6v0c0-0.4-0.3-0.6-0.7-0.6h-0.6v1.1H186.7z"/>
			<path class="st9" d="M188.3,349.1h2.3v0.5h-1.8v0.8h1.6v0.5h-1.6v0.8h1.8v0.5h-2.3V349.1z"/>
			<path class="st9" d="M191.2,349.1h0.5l1.7,2.2v-2.2h0.5v3.1h-0.5l-1.7-2.2v2.2h-0.5V349.1z"/>
		</g>
		<g>
			<path class="st10" d="M181.8,353.1h1.4c1.3,0,2.1,0.7,2.1,1.8v0c0,1-0.8,1.8-2.1,1.8h-1.4V353.1z M183.2,355.9c0.6,0,1-0.3,1-0.9
				v0c0-0.6-0.4-0.9-1-0.9h-0.4v1.8H183.2z"/>
			<path class="st10" d="M186.6,353.1h1l1.5,3.7H188l-0.3-0.6h-1.4l-0.3,0.6H185L186.6,353.1z M187.5,355.3l-0.4-1l-0.4,1H187.5z"/>
			<path class="st10" d="M189.7,354h-1.1v-0.9h3.2v0.9h-1.1v2.8h-1V354z"/>
			<path class="st10" d="M192.9,353.1h1l1.5,3.7h-1.1l-0.3-0.6h-1.4l-0.3,0.6h-1.1L192.9,353.1z M193.8,355.3l-0.4-1l-0.4,1H193.8z"
				/>
		</g>
		<g>
			<path class="st4" d="M181.8,357.6h1.7v3.5h2.3v1.4h-4V357.6z"/>
			<path class="st4" d="M187.8,357.6h1.6l2.1,5h-1.8l-0.3-0.7h-1.7l-0.3,0.7h-1.8L187.8,357.6z M189.1,360.7l-0.5-1.2l-0.5,1.2
				H189.1z"/>
			<path class="st4" d="M191.6,357.6h2.8c0.7,0,1.1,0.2,1.4,0.4c0.2,0.2,0.3,0.4,0.3,0.8v0c0,0.6-0.4,0.9-0.9,1.1
				c0.6,0.2,1,0.5,1,1.2v0c0,0.8-0.6,1.4-1.9,1.4h-2.7V357.6z M193.9,359.6c0.4,0,0.5-0.1,0.5-0.3v0c0-0.2-0.2-0.3-0.5-0.3h-0.7v0.7
				H193.9z M194,361.3c0.4,0,0.5-0.1,0.5-0.4v0c0-0.2-0.2-0.4-0.5-0.4h-0.8v0.7H194z"/>
		</g>
		<path class="st9" d="M179.7,362.6h-3.1c-1.2,0-2.2-1-2.2-2.2c0-0.4,0.1-0.8,0.3-1.1c0.1-0.2,4.5-8.2,4.5-8.3
			c0.1-0.2,0.2-0.5,0.2-0.8v-2.6c0-0.5-0.2-1-0.7-1.3l0.5-0.6c0.6,0.5,1,1.2,1,1.9v2.6c0,0.4-0.1,0.8-0.3,1.1
			c-0.1,0.2-4.4,8.1-4.5,8.4c-0.1,0.2-0.2,0.5-0.2,0.7c0,0.8,0.7,1.5,1.5,1.5h3.1V362.6z"/>
		<path class="st9" d="M182.5,347.5h-0.8c0-0.8,0.4-1.5,1-1.9l0.5,0.6C182.8,346.5,182.5,347,182.5,347.5z"/>
	</g>
</g>
<rect x="72.7" y="117.4" class="st11" width="138" height="138"/>
</svg>
