<?xml version="1.0" encoding="UTF-8" standalone="no"?>
<!-- Generator: Adobe Illustrator 23.1.0, SVG Export Plug-In . SVG Version: 6.00 Build 0)  -->

<svg
   xmlns:dc="http://purl.org/dc/elements/1.1/"
   xmlns:cc="http://creativecommons.org/ns#"
   xmlns:rdf="http://www.w3.org/1999/02/22-rdf-syntax-ns#"
   xmlns:svg="http://www.w3.org/2000/svg"
   xmlns="http://www.w3.org/2000/svg"
   xmlns:sodipodi="http://sodipodi.sourceforge.net/DTD/sodipodi-0.dtd"
   xmlns:inkscape="http://www.inkscape.org/namespaces/inkscape"
   version="1.1"
   id="Layer_1"
   x="0px"
   y="0px"
   viewBox="0 0 103 103"
   xml:space="preserve"
   sodipodi:docname="logo.svg"
   width="103"
   height="103"
   inkscape:version="0.92.4 (5da689c313, 2019-01-14)"><metadata
   id="metadata47"><rdf:RDF><cc:Work
       rdf:about=""><dc:format>image/svg+xml</dc:format><dc:type
         rdf:resource="http://purl.org/dc/dcmitype/StillImage" /><dc:title></dc:title></cc:Work></rdf:RDF></metadata><defs
   id="defs45" /><sodipodi:namedview
   pagecolor="#ffffff"
   bordercolor="#666666"
   borderopacity="1"
   objecttolerance="10"
   gridtolerance="10"
   guidetolerance="10"
   inkscape:pageopacity="0"
   inkscape:pageshadow="2"
   inkscape:window-width="1920"
   inkscape:window-height="1017"
   id="namedview43"
   showgrid="false"
   inkscape:pagecheckerboard="true"
   showguides="false"
   inkscape:zoom="5.6568543"
   inkscape:cx="23.067713"
   inkscape:cy="47.807055"
   inkscape:window-x="1912"
   inkscape:window-y="-8"
   inkscape:window-maximized="1"
   inkscape:current-layer="Layer_1" />
<style
   type="text/css"
   id="style2">
	.st0{fill:#97B14F;}
</style>
<g
   id="g40"
   transform="matrix(2.8117413,0,0,2.8113802,-346.85737,-472.43149)">
	<g
   id="g8">
		<g
   id="g6">
			<path
   class="st0"
   d="m 137.4,180.6 -7.5,-4.5 3,-5.2 c 1.8,-3.1 5.2,-3.2 7.4,0.6 0.3,0.6 1.3,2.3 1.3,2.3 z"
   id="path4"
   inkscape:connector-curvature="0"
   style="fill:#97b14f" />
		</g>
	</g>
	<g
   id="g14">
		<g
   id="g12">
			<path
   class="st0"
   d="m 148.7,185 7.7,-4.3 3,5.2 c 1.7,3.1 0.2,6.1 -4.3,6.1 -0.6,0 -2.6,0 -2.6,0 z"
   id="path10"
   inkscape:connector-curvature="0"
   style="fill:#97b14f" />
		</g>
	</g>
	<g
   id="g20">
		<g
   id="g18">
			<path
   class="st0"
   d="m 142.6,179.4 8.9,0.4 4.1,-7.3 -2.6,1.4 -2,-3.6 c -1.1,-1.5 -1.3,-2.2 -6.8,-2.2 h -6.6 v 0 c 2.1,0.4 3.2,2 3.5,2.6 l 4,7.3 z"
   id="path16"
   inkscape:connector-curvature="0"
   style="fill:#97b14f" />
		</g>
	</g>
	<g
   id="g26">
		<g
   id="g24">
			<path
   class="st0"
   d="m 147.2,190 -4.8,7.5 4.2,7.2 0.1,-2.9 4.2,0.1 c 1.9,-0.2 2.5,-0.1 5.3,-4.8 l 3.3,-5.7 v 0 c -1.4,1.6 -3.2,1.7 -3.9,1.6 h -8.3 z"
   id="path22"
   inkscape:connector-curvature="0"
   style="fill:#97b14f" />
		</g>
	</g>
	<g
   id="g32">
		<g
   id="g30">
			<path
   class="st0"
   d="m 136.1,188.3 -4.1,-7.9 -8.3,0.1 2.5,1.6 -2.1,3.6 c -2.1,3.7 1.2,6.4 4.8,6.4 h 1.6 l 3.3,-5.3 z"
   id="path28"
   inkscape:connector-curvature="0"
   style="fill:#97b14f" />
		</g>
	</g>
	<g
   id="g38">
		<g
   id="g36">
			<path
   class="st0"
   d="m 139.7,192.9 -0.1,9 h -7.4 c 0,0 -2.6,0 -3.8,-2.4 -1.1,-2.1 -4.5,-8.5 -4.5,-8.5 0,0 1.3,1.9 4,1.9 4.9,0.1 11.8,0 11.8,0 z"
   id="path34"
   inkscape:connector-curvature="0"
   style="fill:#97b14f" />
		</g>
	</g>
</g>
</svg>